<?xml version="1.0" standalone="no"?>
<!DOCTYPE svg PUBLIC "-//W3C//DTD SVG 20010904//EN"
 "http://www.w3.org/TR/2001/REC-SVG-20010904/DTD/svg10.dtd">
<svg version="1.0" xmlns="http://www.w3.org/2000/svg"
 width="640.000000pt" height="640.000000pt" viewBox="0 0 640.000000 640.000000"
 preserveAspectRatio="xMidYMid meet">
<metadata>
Created by potrace 1.11, written by Peter Selinger 2001-2013
</metadata>
<g transform="translate(0.000000,640.000000) scale(0.100000,-0.100000)"
fill="#000000" stroke="none">
<path d="M3159 4782 c-14 -9 -33 -24 -41 -32 -25 -26 -48 -111 -48 -181 0 -47
-4 -70 -15 -79 -8 -7 -15 -16 -15 -20 0 -4 -26 -47 -59 -96 -132 -202 -164
-282 -164 -425 l0 -97 -31 -5 c-22 -4 -40 1 -61 16 -16 12 -58 40 -91 63 l-62
42 42 62 c22 35 54 81 69 104 53 77 20 177 -72 219 -25 11 -48 21 -51 21 -3 1
-9 4 -15 8 -9 5 -239 108 -325 145 -53 22 -90 39 -147 67 -29 14 -53 23 -53
19 0 -3 -6 -1 -12 5 -7 6 -35 9 -63 8 -65 -2 -107 -33 -136 -100 -44 -103
-265 -751 -275 -806 -3 -14 -7 -32 -10 -40 -12 -32 -44 -172 -44 -194 0 -34
25 -88 52 -113 25 -24 302 -120 483 -169 6 -2 37 -10 70 -19 33 -9 71 -19 85
-24 31 -9 81 1 115 23 37 24 59 63 66 120 8 62 31 200 35 204 1 2 17 -7 36
-19 32 -21 34 -25 33 -76 0 -51 2 -57 41 -91 22 -20 69 -57 103 -82 35 -24 67
-55 72 -68 9 -24 9 -26 -71 -159 -110 -184 -138 -263 -92 -263 9 0 53 -9 97
-21 44 -11 91 -22 105 -24 81 -12 110 -25 110 -50 0 -22 111 -134 163 -164 29
-16 75 -35 102 -42 28 -6 51 -13 53 -15 2 -1 -26 -56 -63 -122 -56 -102 -66
-128 -67 -170 0 -61 19 -92 77 -127 65 -37 131 -31 183 18 19 17 92 154 92
171 0 5 86 194 103 227 8 14 13 50 12 82 -1 51 1 59 30 87 18 17 41 33 51 34
53 9 130 -96 118 -159 -12 -68 29 -145 99 -182 64 -35 142 -25 198 25 16 15
87 117 158 227 l127 200 65 -2 c35 0 68 2 74 5 5 4 16 7 24 9 8 1 28 12 45 25
26 19 45 23 119 25 158 3 258 56 319 167 20 37 24 136 6 169 -36 64 -115 117
-174 117 -20 0 -33 20 -22 33 5 4 -46 82 -68 103 -59 60 -162 76 -228 35 -41
-26 -89 -79 -112 -124 -9 -17 -18 -33 -19 -35 -8 -9 -75 34 -75 49 0 22 -42
56 -81 64 l-31 7 39 25 c104 70 176 187 191 312 11 96 4 338 -13 421 -3 16 7
50 29 95 19 39 37 89 41 112 8 48 -9 111 -34 130 -24 19 -88 15 -168 -8 l-72
-22 -33 24 c-143 106 -379 173 -602 172 l-89 -1 -55 60 c-81 88 -122 104 -173
70z"/>
<path d="M3299 1953 c-23 -27 -22 -187 1 -232 34 -67 95 -117 130 -106 26 8
26 31 -1 45 -72 39 -102 101 -95 197 3 35 8 68 11 73 8 13 -5 40 -20 40 -7 0
-19 -7 -26 -17z"/>
<path d="M3154 1848 c-14 -23 -14 -140 1 -167 29 -56 70 -86 100 -75 24 10 18
27 -22 60 -38 32 -38 32 -38 110 0 65 -3 79 -17 82 -9 2 -20 -3 -24 -10z"/>
</g>
</svg>
