<svg xmlns="http://www.w3.org/2000/svg" viewBox="0 0 1279.87 1024.99"><defs><style>.cls-1{fill:#b77548;}.cls-2{fill:#440d02;}.cls-3{fill:#894b21;}.cls-4{fill:#723b16;}.cls-5{fill:#f0bb93;}.cls-6{fill:#fff;}.cls-10,.cls-7{fill:#29417c;}.cls-7{stroke:#440d02;stroke-linecap:round;stroke-linejoin:round;stroke-width:12px;}.cls-8{fill:#ccc;}.cls-9{fill:#c1517f;}.cls-11{fill:#c68659;}.cls-12{fill:#af6e43;}.cls-13{fill:#a05f3c;}.cls-14{fill:#c68a61;}.cls-15{fill:#300701;}.cls-16{fill:#539fb7;}.cls-17{fill:#24baa4;}.cls-18{fill:#f9b40d;}</style></defs><title>Valo Doctor with text</title><g id="Layer_2" data-name="Layer 2"><g id="Layer_4" data-name="Layer 4"><rect class="cls-1" x="760.09" y="359.51" width="168.17" height="98.99" rx="49.5" transform="translate(1426.35 1144.52) rotate(-154.21)"/><path class="cls-2" d="M875.23,479.55A55.17,55.17,0,0,1,851.17,474l-62.29-30.09A55.5,55.5,0,0,1,837.17,344l62.29,30.09a55.5,55.5,0,0,1-24.23,105.47ZM813.06,350.44a43.51,43.51,0,0,0-18.95,82.69h0l62.28,30.09a43.5,43.5,0,1,0,37.85-78.33L832,354.79A43.41,43.41,0,0,0,813.06,350.44Z"/><rect class="cls-1" x="397.52" y="224.38" width="168.17" height="98.99" rx="49.5" transform="translate(267.07 -236.93) rotate(37.59)"/><path class="cls-2" d="M508.9,350.48A55.11,55.11,0,0,1,475.16,339l-54.82-42.2a55.5,55.5,0,1,1,67.71-87.95L542.86,251a55.5,55.5,0,0,1-26.7,99A57.33,57.33,0,0,1,508.9,350.48ZM454.29,209.27a43.75,43.75,0,0,0-5.7.37,43.5,43.5,0,0,0-20.93,77.6l54.82,42.2h0a43.49,43.49,0,1,0,53.06-68.93l-54.81-42.2A43.14,43.14,0,0,0,454.29,209.27Z"/><path class="cls-3" d="M586.23,642.75l6.85,3.44c13.49,6.76,30.83-1,38-17.09l36-80.43c6.69-14.94,2.09-31.61-10.46-37.9h0c-12.55-6.29-28.65,0-36.62,14.3l-42.88,77C568.61,617.44,572.75,636,586.23,642.75Z"/><path class="cls-4" d="M655.44,511c-12.55-6.29-28.65,0-36.62,14.3l-28.23,51.27a92.27,92.27,0,0,0,65.51-2.19l9.79-25.49C672.59,533.91,668,517.25,655.44,511Z"/><path class="cls-2" d="M603.5,654.63a29.14,29.14,0,0,1-13.11-3.08l-6.85-3.43a30.33,30.33,0,0,1-15.25-18.47,39.33,39.33,0,0,1,3.64-30.49l42.88-77c9.54-17.12,29.1-24.48,44.55-16.74s21.26,27.82,13.24,45.71l-36,80.44a39.29,39.29,0,0,1-22.25,21.15A32.12,32.12,0,0,1,603.5,654.63Zm42.71-140.3c-7.9,0-16.13,5.07-20.92,13.66l-42.88,77a27.28,27.28,0,0,0-2.65,21.12,18.38,18.38,0,0,0,9.16,11.28h0l6.85,3.43a18.32,18.32,0,0,0,14.52.59,27.28,27.28,0,0,0,15.33-14.76l36-80.44c5.38-12,2-25.22-7.67-30.07A17.21,17.21,0,0,0,646.21,514.33Z"/><path class="cls-1" d="M797.54,549.58,740.37,322.67c-10.44-26.95-79-10.86-108.89-19.68-51.11-15.12-96.15,67.72-111.26,118.83a96.5,96.5,0,0,0,65.18,119.9C620.17,552,656,533.2,680.17,505.59a22.16,22.16,0,0,1,35.76,3l41.49,69.13Z"/><path class="cls-2" d="M757.42,583.71a6.63,6.63,0,0,1-1.25-.13,6,6,0,0,1-3.89-2.78l-41.49-69.13a15.86,15.86,0,0,0-12.3-7.71,16.23,16.23,0,0,0-13.8,5.58c-18.64,21.32-47.83,41-79.59,41a75.12,75.12,0,0,1-21.4-3.1,102.5,102.5,0,0,1-69.23-127.35c7.06-23.89,22.1-59.08,43.14-86.23,24.34-31.4,50.47-44.08,75.57-36.66,10.09,3,26.26,2.88,41.9,2.77,30.86-.22,62.78-.43,70.88,20.5a6.35,6.35,0,0,1,.23.7l57.17,226.91a6,6,0,0,1-2.37,6.38l-40.13,28.13A6,6,0,0,1,757.42,583.71ZM697,491.89c.86,0,1.72,0,2.59.12a27.73,27.73,0,0,1,21.52,13.49l38.17,63.6L790.71,547,734.65,324.53c-5.44-12.9-34.13-12.71-59.48-12.53-17.28.12-33.6.23-45.39-3.26-25.21-7.45-48,13.56-62.69,32.5-20,25.83-34.36,59.44-41.12,82.28A90.5,90.5,0,0,0,587.1,536c34.29,10.14,68.23-11.08,88.56-34.32A28.1,28.1,0,0,1,697,491.89Z"/><path class="cls-5" d="M734.32,382.32,733,353.67l-8.8-34.93c-10.43-26.95-79-10.86-108.89-19.68-17.86-5.29-35,1.41-50.35,14.52L568.5,390a83,83,0,0,0,86.75,79.07h0A83,83,0,0,0,734.32,382.32Z"/><path class="cls-6" d="M746.7,312a16.77,16.77,0,0,0-21.5,15c-2.2,34.44,0,105.39,46.19,162.28,1.9,2.34,20.55-3.36,35.52-8.42A16.76,16.76,0,0,0,816.82,458c-6.81-14.72-13.22-36.87-2.19-55l25.22-41.47a16.78,16.78,0,0,0-9.59-24.81Z"/><path class="cls-2" d="M773.53,495.85c-3.06,0-5.22-.82-6.8-2.77-46.91-57.82-49.91-129.1-47.52-166.45a22.78,22.78,0,0,1,29.2-20.36L832,331a22.78,22.78,0,0,1,13,33.69l-25.21,41.47c-9.55,15.71-3.91,35.52,2.5,49.38a22.58,22.58,0,0,1,.24,18.41,22.86,22.86,0,0,1-13.67,12.63c-9.37,3.17-17.13,5.56-23.07,7.11C780.57,495,776.6,495.85,773.53,495.85ZM741.92,317.33a10.8,10.8,0,0,0-10.74,10.07c-2.25,35.21.47,102,43.47,156.37,2.72-.32,10.38-1.83,30.34-8.58a10.88,10.88,0,0,0,6.49-6,10.5,10.5,0,0,0-.11-8.64c-7.64-16.51-14.16-40.43-1.86-60.65l25.21-41.48a10.79,10.79,0,0,0-6.16-15.94L745,317.78h0A10.83,10.83,0,0,0,741.92,317.33Z"/><line class="cls-7" x1="815.45" y1="451.55" x2="773.36" y2="425.93"/><path class="cls-6" d="M506.52,234.52l-58.66,76a21.57,21.57,0,0,0,4.43,30.65l34.6,25a21.57,21.57,0,0,1,5.35,29.36c-13.28,20.11-34.13,53.52-41.41,75.35-.12.36,48.36,10.77,78.19,17.14a21.56,21.56,0,0,0,25.77-17.54c5-29.65,17.86-85.34,49.82-146.28a21.62,21.62,0,0,0-1.56-22.63l-25.88-36a21.52,21.52,0,0,0-3.6-3.9l-36.06-30.44A21.58,21.58,0,0,0,506.52,234.52Z"/><path class="cls-2" d="M533.6,494.52a28.18,28.18,0,0,1-5.83-.62c-14-3-34.07-7.29-50.17-10.79-8.57-1.87-15.28-3.34-19.94-4.39-2.55-.58-4.6-1.05-6-1.39-2.82-.68-4.69-1.13-6-3.45a6,6,0,0,1-.48-4.88c7.24-21.73,26.89-53.74,42.09-76.76a15.54,15.54,0,0,0-3.86-21.2l-34.6-25a27.57,27.57,0,0,1-5.66-39.18l58.66-76a27.59,27.59,0,0,1,39.61-4.22l36,30.44a27.6,27.6,0,0,1,4.61,5l25.88,36a27.45,27.45,0,0,1,2,28.92C578,387.85,565.39,443.64,560.71,471.48a27.61,27.61,0,0,1-27.11,23Zm-74.8-27.85c8.26,1.88,27.44,6.09,71.47,15.49a15.57,15.57,0,0,0,18.61-12.67c4.79-28.54,17.72-85.73,50.41-148.07a15.49,15.49,0,0,0-1.12-16.34l-25.87-36a15.86,15.86,0,0,0-2.61-2.82L533.64,235.8a15.59,15.59,0,0,0-22.37,2.38h0l-58.66,76a15.58,15.58,0,0,0,3.2,22.13l34.6,25a27.52,27.52,0,0,1,6.84,37.53C486.22,415.55,467.49,445.22,458.8,466.67Zm47.72-232.15h0Z"/><path class="cls-8" d="M570.77,321.06l41-11.83a13,13,0,0,0,4.69-22.55l-39-32.26a13,13,0,0,0-21.31,9.47L554.14,308A13,13,0,0,0,570.77,321.06Z"/><path class="cls-2" d="M567.08,327.59a19.07,19.07,0,0,1-18.93-19.88l1.94-44.09a19,19,0,0,1,31.12-13.82l39,32.25A19,19,0,0,1,613.41,315l-41,11.83A19,19,0,0,1,567.08,327.59Zm2-70.17a7.13,7.13,0,0,0-2.89.62,6.89,6.89,0,0,0-4.16,6.11l-1.94,44.09a7,7,0,0,0,9,7.05h0l41-11.82a7,7,0,0,0,2.52-12.17l-39-32.25A6.9,6.9,0,0,0,569.13,257.42Z"/><path class="cls-8" d="M725.77,342.41,745,370.26a14.43,14.43,0,0,0,24.2-.7l20.15-33.11a14.44,14.44,0,0,0-14.24-21.81l-39.39,5.27A14.43,14.43,0,0,0,725.77,342.41Z"/><path class="cls-2" d="M756.88,382.49a20.35,20.35,0,0,1-16.8-8.82l-19.24-27.84h0A20.43,20.43,0,0,1,734.94,314l39.38-5.26a20.42,20.42,0,0,1,20.16,30.86l-20.14,33.12a20.37,20.37,0,0,1-16.86,9.8ZM730.71,339,750,366.85a8.44,8.44,0,0,0,14.14-.41l20.14-33.11a8.43,8.43,0,0,0-8.32-12.74l-39.38,5.26A8.43,8.43,0,0,0,730.71,339Z"/><path class="cls-9" d="M656.41,336.22l-17.51-15.1a18.33,18.33,0,0,0-30,10.46l-4.32,22.71a18.33,18.33,0,0,0,24,20.73l21.84-7.62A18.32,18.32,0,0,0,656.41,336.22Z"/><path class="cls-2" d="M622.52,382.07a24.37,24.37,0,0,1-23.8-28.9L603,330.46a24.33,24.33,0,0,1,39.78-13.89l17.51,15.1h0a24.32,24.32,0,0,1-7.87,41.39l-21.83,7.62A24.61,24.61,0,0,1,622.52,382.07ZM627,322.66a12.5,12.5,0,0,0-4.11.7,12.2,12.2,0,0,0-8,9.34l-4.32,22.71a12.32,12.32,0,0,0,16.17,13.94l21.83-7.62a12.32,12.32,0,0,0,4-21h0L635,325.66A12.22,12.22,0,0,0,627,322.66Z"/><path class="cls-9" d="M666.2,370.38l17.51,15.1a18.33,18.33,0,0,0,30-10.45L718,352.31a18.33,18.33,0,0,0-24-20.73l-21.84,7.62A18.32,18.32,0,0,0,666.2,370.38Z"/><path class="cls-2" d="M695.59,396A24.1,24.1,0,0,1,679.8,390l-17.52-15.1h0a24.33,24.33,0,0,1,7.87-41.39L692,325.92a24.32,24.32,0,0,1,31.91,27.51l-4.32,22.72a24.07,24.07,0,0,1-15.88,18.42A24.6,24.6,0,0,1,695.59,396Zm-25.48-30.12,17.52,15.1a12.32,12.32,0,0,0,20.15-7l4.32-22.71a12.32,12.32,0,0,0-16.17-13.94l-21.83,7.62a12.32,12.32,0,0,0-4,21Z"/><rect class="cls-9" x="647.32" y="334.14" width="25" height="37.76" rx="9.09" transform="translate(77.53 -117) rotate(10.76)"/><path class="cls-2" d="M661.38,378.37a15.28,15.28,0,0,1-2.85-.27l-6.7-1.28a15.08,15.08,0,0,1-12-17.64L643.48,340a15.08,15.08,0,0,1,17.64-12l6.7,1.28a15.08,15.08,0,0,1,12,17.64l-3.66,19.23a15.11,15.11,0,0,1-14.79,12.28Zm-3.09-38.7a3.09,3.09,0,0,0-3,2.52l-3.66,19.23a3.09,3.09,0,0,0,2.46,3.62l6.7,1.27h0a3.09,3.09,0,0,0,2.31-.48,3.05,3.05,0,0,0,1.3-2L668,344.62a3.09,3.09,0,0,0-2.46-3.62l-6.7-1.27A3,3,0,0,0,658.29,339.67Z"/><line class="cls-10" x1="524.29" y1="348.76" x2="495.4" y2="388.66"/><path class="cls-2" d="M495.39,394.66a6,6,0,0,1-4.85-9.52l28.89-39.9a6,6,0,0,1,9.72,7l-28.89,39.9A6,6,0,0,1,495.39,394.66Z"/><path class="cls-2" d="M621.56,745.28a6,6,0,0,1-2.62-.6c-25.63-12.46-23.21-41.81-18.35-55.58a6,6,0,0,1,11.32,4c-.44,1.28-10.07,29.94,12.28,40.81a6,6,0,0,1-2.63,11.39Z"/><path class="cls-2" d="M662.69,743.21a5.93,5.93,0,0,1-2.61-.6c-18.87-9.18-29.28-25.92-30.11-48.42a91.32,91.32,0,0,1,4.32-30.53,6,6,0,0,1,11.32,4h0c-.66,1.9-15.88,46.86,19.71,64.16a6,6,0,0,1-2.63,11.4Z"/><path class="cls-11" d="M856.44,453.16l3.22,1.86c.94-13.52-5.27-26.81-17.37-33.79l-9-5.21c-17.79-10.27-41-2.71-51,16.58l-49.73,96.63A38,38,0,0,0,733.83,567l45.71-88.81C794.51,449.08,829.59,437.67,856.44,453.16Z"/><path class="cls-11" d="M745.63,578.32h0c16.56,9.55,38.12,3.73,49-13.25l58.77-91.42A39.37,39.37,0,0,0,859.66,455l-3.22-1.86c-26.85-15.49-61.93-4.08-76.9,25L733.83,567A34.2,34.2,0,0,0,745.63,578.32Z"/><path class="cls-12" d="M857.34,452.59l3.22,1.85c.94-13.52-5.28-26.8-17.37-33.78l-9-5.22c-17.79-10.26-41-2.7-51,16.58l-49.73,96.63a38,38,0,0,0,1.27,37.76l45.7-88.8C795.41,448.51,830.49,437.09,857.34,452.59Z"/><path class="cls-2" d="M762.84,588.91a40.23,40.23,0,0,1-20.21-5.4c-19.35-11.16-26.12-36.21-15.41-57L777,429.85a45.12,45.12,0,0,1,27.18-22.69,40.65,40.65,0,0,1,32.11,3.66l9,5.22h0a40.68,40.68,0,0,1,19.24,26,45.19,45.19,0,0,1-6,34.9l-58.78,91.41A44.11,44.11,0,0,1,762.84,588.91Zm53.22-171.49a30.32,30.32,0,0,0-8.53,1.25,33.1,33.1,0,0,0-19.9,16.67L737.89,532c-7.77,15.11-3.06,33.18,10.74,41.14s31.8,3,41-11.3l58.77-91.41a33.15,33.15,0,0,0,4.48-25.58,28.76,28.76,0,0,0-13.58-18.4l-9-5.21A28.18,28.18,0,0,0,816.06,417.42Z"/><path class="cls-1" d="M877,78.7c-6.08-8.1-31.91-.23-53.93,8.51-22.57-18.66-52.43-32.71-88.29-40.85-28.82-6.55-56.83-8.3-82.29-4.5C638.26,23.21,620.28,3.24,610.65,6.39c-22.89,7.48-24.95,37.15-22.27,62-13.62,21.8-29.08,42.24-44.81,70.88C492,233.14,575.11,304.79,664,329.52s204.5,9.35,205.66-98.35c.36-33-1.22-58.51-6.44-89.38C877.24,121.76,889.86,95.78,877,78.7Z"/><path class="cls-13" d="M878.34,76c-1.87-2.5-5.64-3.47-10.58-3.38-1.42,13.9-9.89,29.31-19,42.25,5.22,30.87-.63,57.07-1,90.09-1.17,107.69-92.15,146.73-181,122-43.06-12-55.09-15-1.55-.14,88.85,24.74,204.5,9.35,205.67-98.35.35-33-1.23-58.51-6.45-89.38C878.54,119.1,891.16,93.12,878.34,76Z"/><path class="cls-14" d="M605.06,8.94c2.84-1.33,6.62-.42,10.93,2-5.28,12.93-5,30.52-3.12,46.2-19.13,24.79-26.28,50.66-41.49,80-49.61,95.6,12.33,172.83,102.37,192.78,43.64,9.67,55.69,12.63,1.43.61-90-19.95-184.88-87.91-135.26-183.5,15.21-29.31,28.59-51.07,47.71-75.86C584.65,46.84,585.72,18,605.06,8.94Z"/><path class="cls-2" d="M737.55,345.78a285.84,285.84,0,0,1-75.2-10.48c-29.52-8.22-57.08-21.07-79.69-37.17-24.91-17.74-43.15-39.14-52.73-61.89-13.38-31.77-10.56-65.37,8.38-99.86,10.42-19,20.56-34.14,30.36-48.81C573.4,80.5,577.88,73.8,582.2,67,577.76,20.88,594.14,5.47,608.79.69,616-1.66,627.73.26,655.15,35.44c24.82-3.21,52.05-1.51,81,5.07,35.1,8,64.69,21.36,88,39.84,42.25-16.31,53-11.42,57.67-5.25,11.72,15.61,7.45,39.13-12.34,68.1,4.77,29,6.49,53.92,6.12,88-.4,37.71-14.11,67-40.74,87S772.82,345.78,737.55,345.78ZM612.73,12.08h-.21C593.22,18.4,592,45.84,594.34,67.75a6,6,0,0,1-.87,3.82c-4.76,7.61-9.65,14.92-14.82,22.66C569,108.69,559,123.65,548.83,142.15c-17.08,31.12-19.72,61.21-7.84,89.43,16.91,40.17,64.65,75.48,124.58,92.16,62.92,17.52,126.55,11.58,162.11-15.13,23.48-17.64,35.58-43.72,35.94-77.5.38-34.29-1.41-59.06-6.36-88.32a6,6,0,0,1,1-4.45c12.35-17.6,24.8-41.61,14-56,0-.06-6.52-5.54-46.92,10.48a6,6,0,0,1-6-1C797,73.41,768.14,60.08,733.5,52.21c-28.87-6.55-55.81-8-80.09-4.41a6,6,0,0,1-5.65-2.29C623.33,13.58,614.2,12.08,612.73,12.08Z"/><path class="cls-5" d="M734.92,333.56c12.4-12.17,20.71-31.64,25.94-50.43,14-50.28-9.59-100.77-52.69-112.77s-89.38,19-103.38,69.32c-5.34,19.2-8.3,39.19-3.69,56.29,17.51,12.24,41,21,63.42,27.29C688,329.78,712.77,335.4,734.92,333.56Z"/><path class="cls-2" d="M671.7,308.46h0a52.68,52.68,0,0,1-38.46-63.81l7-28.46L687,227.77l55.52,13.76-7,28.47A52.68,52.68,0,0,1,671.7,308.46Z"/><rect class="cls-6" x="662.58" y="220.68" width="20.74" height="44.8" rx="3.43" transform="translate(78.24 -154.75) rotate(13.92)"/><rect class="cls-6" x="690.76" y="227.67" width="20.74" height="44.8" rx="2.72" transform="translate(80.75 -161.32) rotate(13.92)"/><path class="cls-5" d="M637.73,216.66H690a0,0,0,0,1,0,0v3.41a26.13,26.13,0,0,1-26.13,26.13h0a26.13,26.13,0,0,1-26.13-26.13v-3.41A0,0,0,0,1,637.73,216.66Z" transform="translate(75.17 -152.9) rotate(13.92)"/><path class="cls-5" d="M688.47,229.23h52.27a0,0,0,0,1,0,0v3.41a26.13,26.13,0,0,1-26.13,26.13h0a26.13,26.13,0,0,1-26.13-26.13v-3.41A0,0,0,0,1,688.47,229.23Z" transform="translate(79.68 -164.74) rotate(13.92)"/><path class="cls-2" d="M711.74,220a14.11,14.11,0,0,1,4.48,2.16c11.6-9.68-1.43-29.33-14.72-33.2-12.4-3.6-35.65,5.66-27.87,22.44a13.53,13.53,0,0,1,4.44.49,14,14,0,0,1,9.71,17.2A14.16,14.16,0,0,1,686.6,232a18.05,18.05,0,0,0,7.44,2,14.13,14.13,0,0,1,.5-4.3A14,14,0,0,1,711.74,220Z"/><path class="cls-15" d="M678.07,211.92a13.53,13.53,0,0,0-4.44-.49,18,18,0,0,0,1.35,4.25l3.63,7.95a17.77,17.77,0,0,0,8,8.41,14.16,14.16,0,0,0,1.18-2.92A14,14,0,0,0,678.07,211.92Z"/><path class="cls-15" d="M704.9,231l7.23-4.93a18.09,18.09,0,0,0,4.09-3.83A14,14,0,0,0,694,234,17.76,17.76,0,0,0,704.9,231Z"/><path class="cls-5" d="M592.78,73.34s-6-51.58,17.56-60.11c5.72-2.08,10,40.22,10,40.22Z"/><path class="cls-5" d="M857.39,143.09s29-44.5,14.93-60.37c-3.57-4-28.8,29.37-28.8,29.37Z"/><path class="cls-2" d="M778.81,235.43a67.26,67.26,0,0,1-12.08-1.1,66.51,66.51,0,1,1,12.08,1.1Zm0-123a56.53,56.53,0,1,0,10.26.94A56.59,56.59,0,0,0,778.76,112.42Z"/><path class="cls-2" d="M725.41,172.37a5,5,0,0,1-4.72-3.37c-1.88-5.45-4.57-8.8-8-10-5.07-1.71-11.48,1.46-13.52,2.82a5,5,0,0,1-5.6-8.28c.46-.32,11.43-7.64,22.24-4,6.55,2.18,11.37,7.63,14.32,16.2a5,5,0,0,1-3.1,6.36A4.89,4.89,0,0,1,725.41,172.37Z"/><path class="cls-2" d="M648.76,199.23a66.51,66.51,0,1,1,65.37-54.46A66.38,66.38,0,0,1,648.76,199.23Zm0-123a56.53,56.53,0,1,0,10.26.94A56.58,56.58,0,0,0,648.71,76.22Z"/><path class="cls-2" d="M661,163.41a6,6,0,0,1-5.41-3.39l-4.09-8.45A15.94,15.94,0,0,0,629,144.8l-6.81,4A6,6,0,0,1,616,138.52l6.81-4a27.95,27.95,0,0,1,39.43,11.87l4.08,8.45a6,6,0,0,1-2.79,8A5.92,5.92,0,0,1,661,163.41Z"/><path class="cls-2" d="M796.67,200.85a6,6,0,0,1-5.4-3.39L787.18,189a15.94,15.94,0,0,0-22.49-6.77l-6.81,4A6,6,0,0,1,751.75,176l6.81-4.05A27.95,27.95,0,0,1,798,183.79l4.08,8.45a6,6,0,0,1-2.79,8A5.93,5.93,0,0,1,796.67,200.85Z"/><path class="cls-2" d="M14,1013a7,7,0,0,1-7-7V769.35a7,7,0,0,1,7-7H96.67c40.8,0,75.49,12.17,100.32,35.2,24.46,22.7,37.39,53.87,37.39,90.14S221.45,955.14,197,977.83c-24.83,23-59.52,35.21-100.32,35.21Zm82.67-48.27c52,0,85.56-30.25,85.56-77.08s-33.59-77.08-85.56-77.08H58.8V964.77Z"/><path class="cls-2" d="M96.67,769.35c80.54,0,130.71,49.45,130.71,118.34S177.21,1006,96.67,1006H14V769.35H96.67M51.8,971.77H96.67c57.58,0,92.56-35,92.56-84.08s-35-84.08-92.56-84.08H51.8V971.77M96.67,755.35H14a14,14,0,0,0-14,14V1006a14,14,0,0,0,14,14H96.67c42.6,0,78.93-12.82,105.08-37.08a120.49,120.49,0,0,0,29.45-42.33,142.72,142.72,0,0,0,0-105.87,120.53,120.53,0,0,0-29.45-42.34c-26.15-24.25-62.48-37.07-105.08-37.07ZM65.8,817.61H96.67c48.45,0,78.56,26.86,78.56,70.08s-30.11,70.08-78.56,70.08H65.8V817.61Z"/><path class="cls-2" d="M372.05,1017.28c-57.76,0-101.32-42.5-101.32-98.85,0-56.16,43.56-98.5,101.32-98.5,57.36,0,100.62,42.34,100.62,98.5C472.67,974.78,429.41,1017.28,372.05,1017.28Zm0-151.91c-24.86,0-51.29,18.6-51.29,53.06s26.43,53.06,51.29,53.06c25,0,50.94-19.85,50.94-53.06S397.09,865.37,372.05,865.37Z"/><path class="cls-2" d="M372.05,826.93c51.58,0,93.62,37.09,93.62,91.5s-42,91.85-93.62,91.85c-51.93,0-94.32-37.45-94.32-91.85s42.39-91.5,94.32-91.5m0,151.56c30,0,57.94-23.68,57.94-60.06s-27.91-60.06-57.94-60.06c-30.73,0-58.29,23.67-58.29,60.06s27.56,60.06,58.29,60.06m0-165.56c-29.17,0-56.24,10.35-76.22,29.15-20.7,19.47-32.1,46.58-32.1,76.35s11.39,56.94,32.07,76.5c20,18.92,47.09,29.35,76.25,29.35,29,0,55.93-10.44,75.81-29.39,20.51-19.55,31.81-46.71,31.81-76.46s-11.31-56.85-31.84-76.31c-19.85-18.83-46.76-29.19-75.78-29.19Zm0,151.56c-21.47,0-44.29-16.15-44.29-46.06s22.82-46.06,44.29-46.06c21.3,0,43.94,16.14,43.94,46.06s-22.64,46.06-43.94,46.06Z"/><path class="cls-2" d="M605,1018c-56.75,0-99.55-42.81-99.55-99.56,0-27.89,10.51-53.41,29.6-71.85,18.5-17.87,43.34-27.71,69.95-27.71,43.53,0,80.59,26.73,92.22,66.5a7,7,0,0,1-4.77,8.69l-35.33,10.25a7.17,7.17,0,0,1-1.95.27,7.07,7.07,0,0,1-3.46-.91,7,7,0,0,1-3.31-4.32c-5.39-20.7-21.21-32.57-43.4-32.57-29.15,0-49.52,21.24-49.52,51.65,0,30.89,19.9,51.64,49.52,51.64,15.65,0,36.14-5.54,45-32a7,7,0,0,1,6.63-4.79,6.72,6.72,0,0,1,1.77.23l33.91,8.83a7,7,0,0,1,5,8.48C687.2,991,650.11,1018,605,1018Z"/><path class="cls-2" d="M605,825.87c39.57,0,74.55,24,85.5,61.47l-35.33,10.24c-6.71-25.78-26.85-37.8-50.17-37.8-32.49,0-56.52,24-56.52,58.65,0,35.68,24,58.64,56.52,58.64,23.32,0,43.1-11.3,51.59-36.74l33.91,8.83C681,987,645.67,1011,605,1011c-50.16,0-92.55-37.1-92.55-92.56,0-54.76,42.39-92.56,92.55-92.56m0-14c-28.43,0-55,10.54-74.81,29.67-20.47,19.78-31.74,47.08-31.74,76.89,0,30.08,11.28,57.49,31.77,77.17C550,1014.55,576.54,1025,605,1025c23.11,0,44.73-6.69,62.52-19.33a92.06,92.06,0,0,0,36.55-53.07,14,14,0,0,0-10-17l-33.92-8.84a14.3,14.3,0,0,0-3.53-.45,14,14,0,0,0-13.28,9.57c-6,18-18.89,27.17-38.3,27.17-25.83,0-42.52-17.52-42.52-44.64,0-26.29,17.49-44.65,42.52-44.65,11,0,30.43,3.55,36.62,27.33A14,14,0,0,0,659.11,911l35.33-10.25A14,14,0,0,0,704,883.41c-12.52-42.79-52.27-71.54-98.94-71.54Z"/><path class="cls-2" d="M825.67,1018c-44,0-70.23-26.79-70.23-71.65V868.2h-30.8a7,7,0,0,1-7-7V830.82a7,7,0,0,1,7-7h30.8V776.41a7,7,0,0,1,7-7h36.74a7,7,0,0,1,7,7v47.41h53.06a7,7,0,0,1,7,7V861.2a7,7,0,0,1-7,7H806.18v75.67c0,16.92,7.39,25.49,22,25.49,8,0,17.92-3.21,25.84-8.39a7.06,7.06,0,0,1,3.83-1.14,7.18,7.18,0,0,1,2.2.35,7,7,0,0,1,4.37,4.23l11.31,30.74a7,7,0,0,1-3,8.43C855.3,1014,842.11,1018,825.67,1018Z"/><path class="cls-2" d="M799.18,776.41v54.41h60.06V861.2H799.18v82.66c0,21.91,11.66,32.5,29,32.5,9.18,0,20.49-3.53,29.67-9.53l11.31,30.73c-16.61,9.89-28.62,13.43-43.46,13.43-37.79,0-63.23-21.2-63.23-64.65V861.2h-37.8V830.82h37.8V776.41h36.74m0-14H762.44a14,14,0,0,0-14,14v40.41h-23.8a14,14,0,0,0-14,14V861.2a14,14,0,0,0,14,14h23.8v71.14c0,24.64,7.5,44.93,21.7,58.68,13.5,13.06,32.7,20,55.53,20,17.6,0,32.26-4.47,50.62-15.4a14,14,0,0,0,6-16.86L871,962a14,14,0,0,0-20.79-6.89c-6.75,4.41-15.39,7.25-22,7.25-7.4,0-15-2.19-15-18.5V875.2h46.06a14,14,0,0,0,14-14V830.82a14,14,0,0,0-14-14H813.18V776.41a14,14,0,0,0-14-14Z"/><path class="cls-2" d="M994.37,1017.28c-57.76,0-101.32-42.5-101.32-98.85,0-56.16,43.56-98.5,101.32-98.5,57.36,0,100.62,42.34,100.62,98.5C1095,974.78,1051.73,1017.28,994.37,1017.28Zm0-151.91c-24.86,0-51.29,18.6-51.29,53.06s26.43,53.06,51.29,53.06c25,0,50.94-19.85,50.94-53.06S1019.41,865.37,994.37,865.37Z"/><path class="cls-2" d="M994.37,826.93c51.58,0,93.62,37.09,93.62,91.5s-42,91.85-93.62,91.85c-51.93,0-94.32-37.45-94.32-91.85s42.39-91.5,94.32-91.5m0,151.56c30,0,57.94-23.68,57.94-60.06s-27.91-60.06-57.94-60.06c-30.73,0-58.29,23.67-58.29,60.06s27.56,60.06,58.29,60.06m0-165.56c-29.17,0-56.24,10.35-76.22,29.15-20.7,19.47-32.1,46.58-32.1,76.35s11.39,56.94,32.07,76.5c20,18.92,47.09,29.35,76.25,29.35s55.93-10.44,75.81-29.39c20.51-19.55,31.81-46.71,31.81-76.46s-11.31-56.85-31.84-76.31c-19.85-18.83-46.76-29.19-75.78-29.19Zm0,151.56c-21.47,0-44.29-16.15-44.29-46.06s22.82-46.06,44.29-46.06c21.3,0,43.94,16.14,43.94,46.06s-22.64,46.06-43.94,46.06Z"/><path class="cls-2" d="M1150,1013a7,7,0,0,1-7-7V830.82a7,7,0,0,1,7-7h36.74a7,7,0,0,1,7,7v16.69c15.93-16.78,36.58-25.81,59.77-25.81,4.54,0,8.82,0,14.42,1.72a7,7,0,0,1,4.93,7.18l-2.48,35.33a7,7,0,0,1-7,6.51,6.36,6.36,0,0,1-.87-.06,92.17,92.17,0,0,0-9.37-.3c-51.7,0-59.42,45.2-59.42,72.14V1006a7,7,0,0,1-7,7Z"/><path class="cls-2" d="M1253.51,828.7c4.24,0,7.77,0,12.36,1.41l-2.47,35.33a94.07,94.07,0,0,0-10.24-.36c-44.52,0-66.42,31.09-66.42,79.14V1006H1150V830.82h36.74v37.44c14.13-23.31,36.39-39.56,66.77-39.56m0-14a87.05,87.05,0,0,0-52.77,17.22v-1.1a14,14,0,0,0-14-14H1150a14,14,0,0,0-14,14V1006a14,14,0,0,0,14,14h36.74a14,14,0,0,0,14-14V944.22c0-21,4.65-37.86,13.44-48.83,8.67-10.82,21.78-16.31,39-16.31,2.45,0,6.54,0,8.5.25a14.52,14.52,0,0,0,1.74.11,14,14,0,0,0,14-13l2.47-35.33a14,14,0,0,0-9.85-14.36,51.63,51.63,0,0,0-16.48-2Z"/><path class="cls-16" d="M635.83,497.89s31,10,58,0"/><path class="cls-2" d="M666.73,508.35A116.39,116.39,0,0,1,634,503.6a6,6,0,0,1,3.68-11.42c.45.14,29.49,9.19,54.08.08a6,6,0,1,1,4.16,11.26A84.42,84.42,0,0,1,666.73,508.35Z"/><path class="cls-2" d="M665.69,250.55a31.07,31.07,0,0,1-7.49-.91,5,5,0,0,1,2.4-9.71,21.16,21.16,0,0,0,25.6-15.43l.82-3.31a5,5,0,1,1,9.71,2.41l-.82,3.31A31.18,31.18,0,0,1,665.69,250.55Z"/><path class="cls-2" d="M659.41,249.79a5,5,0,0,1-1.21-.15,31.17,31.17,0,0,1-22.73-37.71l.82-3.31A5,5,0,1,1,646,211l-.82,3.31a21.14,21.14,0,0,0,15.42,25.59,5,5,0,0,1-1.19,9.86Z"/><path class="cls-2" d="M717.37,263a31.32,31.32,0,0,1-7.54-.93,5,5,0,1,1,2.4-9.7A21.16,21.16,0,0,0,737.83,237l.82-3.31a5,5,0,1,1,9.71,2.41l-.82,3.3A31.17,31.17,0,0,1,717.37,263Z"/><path class="cls-2" d="M711,262.26a5,5,0,0,1-1.21-.15,31.11,31.11,0,0,1-22.73-37.7l.82-3.31a5,5,0,0,1,9.71,2.4l-.82,3.31a21.13,21.13,0,0,0,15.42,25.6,5,5,0,0,1-1.19,9.85Z"/><path class="cls-17" d="M332.41,47.77a28,28,0,0,0-37,14.08c-12.55,28-75.3,208.68-77.4,243.09a27.94,27.94,0,0,0,15,26.53c16.78,8.69,129,42.51,143,44.47a27.91,27.91,0,0,0,31.63-24.5c3-26.62,10.45-69.42,29-114.52,11.44-27.79,27.1-56.44,48.52-82.72A28,28,0,0,0,475,111.05L414,83.67Z"/><path class="cls-2" d="M380,382.22a34.07,34.07,0,0,1-4.82-.34C361.86,380,248.27,346.1,230.32,336.8a34,34,0,0,1-18.25-32.22C214.27,268.44,277.4,87.44,290,59.4a34,34,0,0,1,44.87-17.11l81.51,35.88,61.08,27.41A33.94,33.94,0,0,1,489.86,158c-19,23.32-35,50.65-47.62,81.21-18.09,43.94-25.54,85.66-28.61,112.92A33.91,33.91,0,0,1,380,382.22ZM321,51.31a22,22,0,0,0-20.05,13c-12.19,27.18-74.81,207-76.88,241a22,22,0,0,0,11.79,20.83c16.69,8.65,128.52,42.1,141,43.86a21.92,21.92,0,0,0,24.83-19.23c3.15-28,10.81-70.91,29.43-116.14,13-31.65,29.66-60,49.42-84.23a21.94,21.94,0,0,0-8-33.87l-61-27.39L330,53.25A21.87,21.87,0,0,0,321,51.31Z"/><path class="cls-6" d="M314.32,155.59a6,6,0,0,1-5.53-3.67l-11.13-26.35a6,6,0,0,1,3.2-7.86l26.35-11.13a6,6,0,0,1,4.67,11.06l-20.83,8.79,8.79,20.82a6,6,0,0,1-5.52,8.34Z"/><path class="cls-6" d="M353.66,303.41a6,6,0,0,1-2.33-11.53L372,283.14l-8.92-20a6,6,0,1,1,11-4.88l11.41,25.62a6,6,0,0,1-3.15,8L356,302.93A5.82,5.82,0,0,1,353.66,303.41Z"/><path class="cls-6" d="M399.41,169.61a5.92,5.92,0,0,1-2.17-.41l-68.93-26.8a6,6,0,1,1,4.35-11.18L401.59,158a6,6,0,0,1-2.18,11.59Z"/><path class="cls-6" d="M386.44,207a6,6,0,0,1-2.18-.41l-68.93-26.8a6,6,0,1,1,4.35-11.19l68.93,26.8a6,6,0,0,1-2.17,11.6Z"/><path class="cls-6" d="M344.26,279.26a6,6,0,0,1-2.18-.41l-50.79-19.74a6,6,0,1,1,4.35-11.19l50.79,19.75a6,6,0,0,1-2.17,11.59Z"/><path class="cls-6" d="M372.59,245.92a5.92,5.92,0,0,1-2.17-.41l-68.93-26.8a6,6,0,1,1,4.35-11.18l68.93,26.8a6,6,0,0,1-2.18,11.59Z"/><path class="cls-1" d="M451.93,240.37s-48.13-14.59-36.58-39.83c11.81-25.83,61.3,7.62,61.3,7.62"/><path class="cls-2" d="M437.74,185.16c18.77,2.51,39.45,16.12,42.27,18a6,6,0,1,1-6.72,9.94c-8.35-5.64-32.92-19.47-46-15.79A9.67,9.67,0,0,0,420.8,203a11.26,11.26,0,0,0-.2,9.88c5,11.07,25.57,19.43,33.07,21.72a6,6,0,0,1-3.48,11.49c-3.29-1-32.4-10.28-40.52-28.27a23.32,23.32,0,0,1,.22-19.81,21.69,21.69,0,0,1,14.19-12.26A34.12,34.12,0,0,1,437.74,185.16Z"/><path class="cls-18" d="M956.17,366c8.66-29.09-45.14-79.34-81.66-17.08-20.9,35.65,1.83,90.68,6,101.37,11.07,3,68.22,19.67,101.42-4.94C1039.88,402.4,984.16,354.29,956.17,366Z"/><path class="cls-2" d="M933.85,464.53c-14.61,0-32.29-2.29-53.63-8.08l-1.3-.35a6,6,0,0,1-4-3.63l-.49-1.25c-22.06-56.53-14.92-88.48-5-105.32,16.57-28.26,40.28-39.12,63.4-29.08,17.43,7.57,29.8,25.36,30.34,41.51,16.12-1.19,35.12,9.2,44.51,25.71,12.47,21.92,4.2,46.65-22.12,66.15C975.5,457.58,959.34,464.52,933.85,464.53ZM885,445.3c52.87,14,79.94,5.2,93.36-4.75,21.6-16,28.29-34,18.84-50.58-8.18-14.37-27-23.32-38.67-18.42a6,6,0,0,1-8.07-7.25c3.62-12.16-7.29-29.88-22.46-36.47-17.53-7.62-34.67,1-48.27,24.14C871.24,366.38,865.36,394.24,885,445.3Z"/><path class="cls-1" d="M861.23,362.42s49.63,8.08,41.54,34.63c-8.28,27.16-61.78.57-61.78.57"/><path class="cls-2" d="M882.61,415.26c-18.94,0-41.24-10.75-44.29-12.26a6,6,0,0,1,5.34-10.75c9,4.48,35.21,14.93,47.66,9.56A9.64,9.64,0,0,0,897,395.3a11.24,11.24,0,0,0-1.11-9.81c-6.41-10.32-27.92-15.88-35.66-17.15a6,6,0,0,1,1.93-11.85c3.4.56,33.48,5.89,43.91,22.65a23.34,23.34,0,0,1,2.41,19.66,21.7,21.7,0,0,1-12.44,14A34.1,34.1,0,0,1,882.61,415.26Z"/></g></g></svg>