<svg xmlns="http://www.w3.org/2000/svg" viewBox="0 0 801.28 745.28"><defs><style>.cls-1{fill:#b77548;}.cls-2{fill:#440d02;}.cls-3{fill:#894b21;}.cls-4{fill:#723b16;}.cls-5{fill:#f0bb93;}.cls-6{fill:#fff;}.cls-10,.cls-7{fill:#29417c;}.cls-7{stroke:#440d02;stroke-linecap:round;stroke-linejoin:round;stroke-width:12px;}.cls-8{fill:#ccc;}.cls-9{fill:#c1517f;}.cls-11{fill:#c68659;}.cls-12{fill:#af6e43;}.cls-13{fill:#a05f3c;}.cls-14{fill:#c68a61;}.cls-15{fill:#300701;}.cls-16{fill:#539fb7;}.cls-17{fill:#24baa4;}.cls-18{fill:#f9b40d;}</style></defs><title>Valo Doctor</title><g id="Layer_2" data-name="Layer 2"><g id="Layer_4" data-name="Layer 4"><rect class="cls-1" x="548.08" y="359.51" width="168.17" height="98.99" rx="49.5" transform="translate(1023.45 1052.29) rotate(-154.21)"/><path class="cls-2" d="M663.22,479.55A55.17,55.17,0,0,1,639.16,474l-62.28-30.09A55.5,55.5,0,0,1,625.16,344l62.29,30.09a55.5,55.5,0,0,1-24.23,105.47ZM601.05,350.44a43.51,43.51,0,0,0-18.95,82.69h0l62.29,30.09a43.5,43.5,0,0,0,37.84-78.33l-62.29-30.1A43.38,43.38,0,0,0,601.05,350.44Z"/><rect class="cls-1" x="185.51" y="224.38" width="168.17" height="98.99" rx="49.5" transform="translate(223.05 -107.6) rotate(37.59)"/><path class="cls-2" d="M296.89,350.48A55.11,55.11,0,0,1,263.15,339l-54.82-42.2A55.5,55.5,0,1,1,276,208.8L330.86,251a55.5,55.5,0,0,1-26.7,99A57.48,57.48,0,0,1,296.89,350.48ZM242.28,209.27a43.87,43.87,0,0,0-5.7.37,43.5,43.5,0,0,0-20.93,77.6l54.82,42.2h0a43.5,43.5,0,1,0,53.07-68.93l-54.82-42.2A43.12,43.12,0,0,0,242.28,209.27Z"/><path class="cls-3" d="M374.22,642.75l6.85,3.44c13.49,6.76,30.83-1,38-17.09l36-80.43c6.69-14.94,2.09-31.61-10.46-37.9h0c-12.55-6.29-28.65,0-36.62,14.3l-42.88,77C356.61,617.44,360.74,636,374.22,642.75Z"/><path class="cls-4" d="M443.43,511c-12.55-6.29-28.65,0-36.62,14.3l-28.23,51.27a92.27,92.27,0,0,0,65.51-2.19l9.8-25.49C460.58,533.91,456,517.25,443.43,511Z"/><path class="cls-2" d="M391.49,654.63a29.07,29.07,0,0,1-13.1-3.08l-6.86-3.43a30.29,30.29,0,0,1-15.24-18.47,39.28,39.28,0,0,1,3.63-30.49l42.88-77c9.54-17.12,29.11-24.48,44.55-16.74s21.26,27.82,13.24,45.71l-36,80.44a39.29,39.29,0,0,1-22.25,21.15A32.12,32.12,0,0,1,391.49,654.63Zm42.71-140.3c-7.89,0-16.13,5.07-20.91,13.66L370.4,605a27.33,27.33,0,0,0-2.65,21.12,18.41,18.41,0,0,0,9.16,11.28h0l6.85,3.43a18.32,18.32,0,0,0,14.52.59,27.28,27.28,0,0,0,15.33-14.76l36-80.44c5.38-12,2-25.22-7.67-30.07A17.21,17.21,0,0,0,434.2,514.33Z"/><path class="cls-1" d="M585.53,549.58,528.36,322.67c-10.43-26.95-79-10.86-108.89-19.68-51.11-15.12-96.15,67.72-111.26,118.83a96.5,96.5,0,0,0,65.18,119.9C408.16,552,444,533.2,468.17,505.59a22.16,22.16,0,0,1,35.76,3l41.48,69.13Z"/><path class="cls-2" d="M545.41,583.71a6.53,6.53,0,0,1-1.24-.13,6,6,0,0,1-3.9-2.78l-41.49-69.13A15.86,15.86,0,0,0,486.49,504a16.24,16.24,0,0,0-13.81,5.58c-18.64,21.32-47.82,41-79.59,41a75.12,75.12,0,0,1-21.4-3.1,102.5,102.5,0,0,1-69.23-127.35c7.06-23.89,22.1-59.08,43.14-86.23,24.34-31.4,50.47-44.08,75.57-36.66,10.09,3,26.27,2.88,41.91,2.77,30.85-.22,62.77-.43,70.88,20.5.08.23.16.47.22.7l57.17,226.91a6,6,0,0,1-2.37,6.38l-40.12,28.13A6,6,0,0,1,545.41,583.71ZM485,491.89c.86,0,1.72,0,2.59.12a27.71,27.71,0,0,1,21.52,13.49l38.17,63.6L578.71,547,522.64,324.53c-5.44-12.9-34.13-12.71-59.48-12.53-17.28.12-33.6.23-45.39-3.26-25.21-7.45-48,13.56-62.68,32.5-20,25.83-34.37,59.44-41.12,82.28A90.49,90.49,0,0,0,375.09,536c34.3,10.14,68.23-11.08,88.56-34.32A28.1,28.1,0,0,1,485,491.89Z"/><path class="cls-5" d="M522.31,382.32,521,353.67l-8.8-34.93c-10.43-26.95-79-10.86-108.89-19.68-17.86-5.29-35,1.41-50.34,14.52L356.49,390a83,83,0,0,0,86.76,79.07h0A83,83,0,0,0,522.31,382.32Z"/><path class="cls-6" d="M534.7,312a16.77,16.77,0,0,0-21.51,15c-2.2,34.44,0,105.39,46.2,162.28,1.89,2.34,20.54-3.36,35.51-8.42A16.76,16.76,0,0,0,604.81,458c-6.81-14.72-13.22-36.87-2.19-55l25.22-41.47a16.78,16.78,0,0,0-9.58-24.81Z"/><path class="cls-2" d="M561.52,495.85c-3.06,0-5.22-.82-6.8-2.77C507.81,435.26,504.81,364,507.2,326.63a22.78,22.78,0,0,1,29.2-20.36L620,331a22.79,22.79,0,0,1,13,33.69l-25.22,41.47c-9.55,15.71-3.91,35.52,2.5,49.38a22.62,22.62,0,0,1,.25,18.41,22.92,22.92,0,0,1-13.67,12.63c-9.38,3.17-17.14,5.56-23.07,7.11C568.56,495,564.59,495.85,561.52,495.85Zm-31.6-178.52a10.78,10.78,0,0,0-10.74,10.07c-2.25,35.21.47,102,43.46,156.37,2.72-.32,10.39-1.83,30.34-8.58a10.85,10.85,0,0,0,6.49-6,10.46,10.46,0,0,0-.11-8.64c-7.64-16.51-14.16-40.43-1.86-60.65l25.21-41.48a10.78,10.78,0,0,0-6.16-15.94L533,317.78h0A10.93,10.93,0,0,0,529.92,317.33Z"/><line class="cls-7" x1="603.44" y1="451.55" x2="561.36" y2="425.93"/><path class="cls-6" d="M294.51,234.52l-58.65,76a21.57,21.57,0,0,0,4.42,30.65l34.6,25a21.57,21.57,0,0,1,5.35,29.36c-13.28,20.11-34.13,53.52-41.41,75.35-.12.36,48.37,10.77,78.19,17.14a21.57,21.57,0,0,0,25.78-17.54c5-29.65,17.85-85.34,49.81-146.28A21.62,21.62,0,0,0,391,301.58l-25.88-36a21.17,21.17,0,0,0-3.6-3.9L325.5,231.22A21.58,21.58,0,0,0,294.51,234.52Z"/><path class="cls-2" d="M321.59,494.52a28.25,28.25,0,0,1-5.83-.62c-14-3-34.07-7.29-50.17-10.79-8.57-1.87-15.28-3.34-19.94-4.39-2.55-.58-4.6-1.05-6-1.39-2.82-.68-4.68-1.13-6-3.45a6,6,0,0,1-.49-4.88c7.24-21.73,26.89-53.74,42.1-76.76a15.54,15.54,0,0,0-3.87-21.2l-34.6-25a27.56,27.56,0,0,1-5.65-39.18l58.66-76a27.58,27.58,0,0,1,39.6-4.22l36.06,30.44a28.34,28.34,0,0,1,4.61,5l25.87,36a27.45,27.45,0,0,1,2,28.92C366,387.85,353.38,443.64,348.7,471.48a27.61,27.61,0,0,1-27.11,23Zm-74.8-27.85c8.26,1.88,27.44,6.09,71.48,15.49a15.57,15.57,0,0,0,18.6-12.67c4.8-28.54,17.73-85.73,50.42-148.07a15.51,15.51,0,0,0-1.13-16.34l-25.87-36a15.8,15.8,0,0,0-2.6-2.82L321.63,235.8a15.59,15.59,0,0,0-22.37,2.38h0l-58.66,76a15.58,15.58,0,0,0,3.2,22.13l34.6,25a27.52,27.52,0,0,1,6.84,37.53C274.21,415.55,255.49,445.22,246.79,466.67Zm47.72-232.15h0Z"/><path class="cls-8" d="M358.76,321.06l41-11.83a13,13,0,0,0,4.69-22.55l-39-32.26a13,13,0,0,0-21.3,9.47L342.14,308A13,13,0,0,0,358.76,321.06Z"/><path class="cls-2" d="M355.07,327.59a19.07,19.07,0,0,1-18.93-19.88l1.94-44.09A19,19,0,0,1,369.2,249.8l39,32.25A19,19,0,0,1,401.4,315l-41,11.83A19,19,0,0,1,355.07,327.59Zm2.05-70.17a7.13,7.13,0,0,0-2.89.62,6.91,6.91,0,0,0-4.16,6.11l-1.94,44.09a7,7,0,0,0,9,7.05h0l41-11.82a7,7,0,0,0,2.52-12.17l-39-32.25A6.9,6.9,0,0,0,357.12,257.42Z"/><path class="cls-8" d="M513.76,342.41,533,370.26a14.44,14.44,0,0,0,24.21-.7l20.14-33.11a14.44,14.44,0,0,0-14.24-21.81l-39.39,5.27A14.43,14.43,0,0,0,513.76,342.41Z"/><path class="cls-2" d="M544.87,382.49a20.35,20.35,0,0,1-16.8-8.82l-19.24-27.84h0A20.43,20.43,0,0,1,522.93,314l39.38-5.26a20.42,20.42,0,0,1,20.16,30.86l-20.14,33.12a20.36,20.36,0,0,1-16.86,9.8ZM518.7,339l19.24,27.85a8.44,8.44,0,0,0,14.14-.41l20.14-33.11a8.43,8.43,0,0,0-8.32-12.74l-39.38,5.26A8.44,8.44,0,0,0,518.7,339Z"/><path class="cls-9" d="M444.41,336.22l-17.52-15.1a18.33,18.33,0,0,0-30,10.46l-4.31,22.71a18.33,18.33,0,0,0,24,20.73l21.83-7.62A18.33,18.33,0,0,0,444.41,336.22Z"/><path class="cls-2" d="M410.52,382.07a24.37,24.37,0,0,1-23.81-28.9L391,330.46a24.33,24.33,0,0,1,39.78-13.89l17.51,15.1h0a24.32,24.32,0,0,1-7.86,41.39l-21.84,7.62A24.6,24.6,0,0,1,410.52,382.07ZM415,322.66a12.55,12.55,0,0,0-4.11.7,12.2,12.2,0,0,0-8,9.34l-4.32,22.71a12.32,12.32,0,0,0,16.17,13.94l21.83-7.62a12.32,12.32,0,0,0,4-21h0L423,325.66A12.22,12.22,0,0,0,415,322.66Z"/><path class="cls-9" d="M454.19,370.38l17.51,15.1a18.33,18.33,0,0,0,30-10.45L506,352.31a18.33,18.33,0,0,0-24-20.73l-21.83,7.62A18.32,18.32,0,0,0,454.19,370.38Z"/><path class="cls-2" d="M483.58,396A24.12,24.12,0,0,1,467.79,390l-17.52-15.1h0a24.33,24.33,0,0,1,7.87-41.39L480,325.92a24.32,24.32,0,0,1,31.91,27.51l-4.31,22.72a24.08,24.08,0,0,1-15.89,18.42A24.6,24.6,0,0,1,483.58,396Zm-25.47-30.12,17.51,15.1a12.33,12.33,0,0,0,20.16-7l4.31-22.71a12.32,12.32,0,0,0-16.16-13.94l-21.84,7.62a12.33,12.33,0,0,0-4,21Z"/><rect class="cls-9" x="435.31" y="334.14" width="25" height="37.76" rx="9.09" transform="translate(73.8 -77.41) rotate(10.76)"/><path class="cls-2" d="M449.37,378.37a15.28,15.28,0,0,1-2.85-.27l-6.7-1.28a15.08,15.08,0,0,1-12-17.64L431.47,340a15.08,15.08,0,0,1,17.64-12l6.7,1.28a15.08,15.08,0,0,1,12,17.64l-3.66,19.23a15.09,15.09,0,0,1-14.79,12.28Zm-3.08-38.7a3.11,3.11,0,0,0-1.74.54,3.07,3.07,0,0,0-1.29,2l-3.66,19.23a3.09,3.09,0,0,0,2.46,3.62l6.7,1.27h0a3.12,3.12,0,0,0,2.32-.48,3.07,3.07,0,0,0,1.29-2L456,344.62a3.09,3.09,0,0,0-2.46-3.62l-6.7-1.27A2.93,2.93,0,0,0,446.29,339.67Z"/><line class="cls-10" x1="312.29" y1="348.76" x2="283.39" y2="388.66"/><path class="cls-2" d="M283.39,394.66a6,6,0,0,1-4.86-9.52l28.9-39.9a6,6,0,1,1,9.72,7l-28.9,39.9A6,6,0,0,1,283.39,394.66Z"/><path class="cls-2" d="M409.56,745.28a5.94,5.94,0,0,1-2.62-.6c-25.64-12.46-23.22-41.81-18.36-55.58a6,6,0,1,1,11.32,4c-.44,1.28-10.07,29.94,12.28,40.81a6,6,0,0,1-2.62,11.39Z"/><path class="cls-2" d="M450.69,743.21a6,6,0,0,1-2.62-.6c-18.87-9.18-29.28-25.92-30.11-48.42a91.18,91.18,0,0,1,4.33-30.53,6,6,0,0,1,11.32,4h0c-.67,1.9-15.89,46.86,19.7,64.16a6,6,0,0,1-2.62,11.4Z"/><path class="cls-11" d="M644.43,453.16l3.22,1.86c.94-13.52-5.27-26.81-17.37-33.79l-9-5.21c-17.79-10.27-41-2.71-51,16.58l-49.73,96.63A38,38,0,0,0,521.82,567l45.71-88.81C582.51,449.08,617.58,437.67,644.43,453.16Z"/><path class="cls-11" d="M533.62,578.32h0c16.56,9.55,38.12,3.73,49-13.25l58.77-91.42A39.37,39.37,0,0,0,647.65,455l-3.22-1.86c-26.85-15.49-61.92-4.08-76.9,25L521.82,567A34.28,34.28,0,0,0,533.62,578.32Z"/><path class="cls-12" d="M645.33,452.59l3.22,1.85c.94-13.52-5.27-26.8-17.37-33.78l-9-5.22c-17.79-10.26-41-2.7-51,16.58l-49.73,96.63a38,38,0,0,0,1.27,37.76l45.71-88.8C583.4,448.51,618.48,437.09,645.33,452.59Z"/><path class="cls-2" d="M550.83,588.91a40.26,40.26,0,0,1-20.21-5.4c-19.35-11.16-26.12-36.21-15.4-57L565,429.85a45.14,45.14,0,0,1,27.19-22.69,40.63,40.63,0,0,1,32.1,3.66l9,5.22h0a40.64,40.64,0,0,1,19.24,26,45.19,45.19,0,0,1-6,34.9l-58.77,91.41A44.13,44.13,0,0,1,550.83,588.91Zm53.22-171.49a30.37,30.37,0,0,0-8.53,1.25,33.1,33.1,0,0,0-19.9,16.67L525.89,532c-7.78,15.11-3.07,33.18,10.73,41.14s31.8,3,41-11.3l58.78-91.41a33.19,33.19,0,0,0,4.47-25.58,28.76,28.76,0,0,0-13.58-18.4l-9-5.21A28.25,28.25,0,0,0,604.05,417.42Z"/><path class="cls-1" d="M665,78.7c-6.08-8.1-31.91-.23-53.93,8.51-22.57-18.66-52.43-32.71-88.28-40.85-28.83-6.55-56.84-8.3-82.3-4.5C426.25,23.21,408.27,3.24,398.65,6.39c-22.9,7.48-25,37.15-22.28,62-13.61,21.8-29.08,42.24-44.81,70.88C280,233.14,363.1,304.79,452,329.52s204.5,9.35,205.67-98.35c.35-33-1.23-58.51-6.45-89.38C665.23,121.76,677.85,95.78,665,78.7Z"/><path class="cls-13" d="M666.34,76c-1.88-2.5-5.64-3.47-10.59-3.38-1.42,13.9-9.88,29.31-19,42.25,5.22,30.87-.63,57.07-1,90.09-1.16,107.69-92.15,146.73-181,122-43.05-12-55.09-15-1.55-.14,88.86,24.74,204.5,9.35,205.67-98.35.36-33-1.22-58.51-6.45-89.38C666.53,119.1,679.15,93.12,666.34,76Z"/><path class="cls-14" d="M393.05,8.94c2.84-1.33,6.62-.42,10.94,2-5.29,12.93-5.06,30.52-3.13,46.2-19.13,24.79-26.28,50.66-41.49,80-49.61,95.6,12.33,172.83,102.38,192.78,43.63,9.67,55.68,12.63,1.42.61-90-19.95-184.87-87.91-135.26-183.5,15.21-29.31,28.59-51.07,47.72-75.86C372.64,46.84,373.72,18,393.05,8.94Z"/><path class="cls-2" d="M525.54,345.78a285.9,285.9,0,0,1-75.2-10.48c-29.52-8.22-57.07-21.07-79.68-37.17-24.92-17.74-43.16-39.14-52.73-61.89-13.38-31.77-10.56-65.37,8.38-99.86,10.41-19,20.55-34.14,30.36-48.81,4.72-7.07,9.2-13.77,13.52-20.62C365.75,20.88,382.13,5.47,396.78.69,404-1.66,415.72.26,443.14,35.44c24.82-3.21,52.05-1.51,81,5.07,35.09,8,64.68,21.36,88,39.84,42.25-16.31,53-11.42,57.67-5.25,11.72,15.61,7.45,39.13-12.34,68.1,4.77,29,6.5,53.92,6.13,88-.41,37.71-14.12,67-40.75,87S560.81,345.78,525.54,345.78ZM400.72,12.08h-.21C381.21,18.4,380,45.84,382.34,67.75a6,6,0,0,1-.88,3.82c-4.76,7.61-9.64,14.92-14.82,22.66C357,108.69,347,123.65,336.82,142.15c-17.08,31.12-19.72,61.21-7.84,89.43,16.92,40.17,64.65,75.48,124.58,92.16,62.92,17.52,126.55,11.58,162.11-15.13,23.49-17.64,35.58-43.72,36-77.5.37-34.29-1.42-59.06-6.36-88.32a6,6,0,0,1,1-4.45c12.35-17.6,24.81-41.61,14-56,0-.06-6.52-5.54-46.93,10.48a6,6,0,0,1-6-1C585,73.41,556.13,60.08,521.49,52.21c-28.87-6.55-55.81-8-80.09-4.41a6,6,0,0,1-5.65-2.29C411.33,13.58,402.19,12.08,400.72,12.08Z"/><path class="cls-5" d="M522.91,333.56c12.4-12.17,20.71-31.64,25.94-50.43,14-50.28-9.59-100.77-52.69-112.77s-89.38,19-103.37,69.32c-5.35,19.2-8.31,39.19-3.7,56.29,17.51,12.24,41,21,63.43,27.29C476,329.78,500.76,335.4,522.91,333.56Z"/><path class="cls-2" d="M459.69,308.46h0a52.68,52.68,0,0,1-38.46-63.81l7.06-28.46L475,227.77l55.51,13.76-7,28.47A52.68,52.68,0,0,1,459.69,308.46Z"/><rect class="cls-6" x="450.57" y="220.68" width="20.74" height="44.8" rx="3.43" transform="translate(72.01 -103.75) rotate(13.92)"/><rect class="cls-6" x="478.75" y="227.67" width="20.74" height="44.8" rx="2.72" transform="translate(74.52 -110.32) rotate(13.92)"/><path class="cls-5" d="M425.73,216.66H478a0,0,0,0,1,0,0v3.41a26.13,26.13,0,0,1-26.13,26.13h0a26.13,26.13,0,0,1-26.13-26.13v-3.41a0,0,0,0,1,0,0Z" transform="translate(68.94 -101.9) rotate(13.92)"/><path class="cls-5" d="M476.46,229.23h52.27a0,0,0,0,1,0,0v3.41a26.13,26.13,0,0,1-26.13,26.13h0a26.13,26.13,0,0,1-26.13-26.13v-3.41a0,0,0,0,1,0,0Z" transform="translate(73.46 -113.74) rotate(13.92)"/><path class="cls-2" d="M499.73,220a14,14,0,0,1,4.48,2.16c11.61-9.68-1.42-29.33-14.72-33.2-12.39-3.6-35.64,5.66-27.87,22.44a13.62,13.62,0,0,1,4.45.49,14,14,0,0,1,9.7,17.2,13.63,13.63,0,0,1-1.18,2.92,18.05,18.05,0,0,0,7.44,2,14.13,14.13,0,0,1,.5-4.3A14,14,0,0,1,499.73,220Z"/><path class="cls-15" d="M466.07,211.92a13.62,13.62,0,0,0-4.45-.49,18.52,18.52,0,0,0,1.35,4.25l3.64,7.95a17.75,17.75,0,0,0,8,8.41,13.63,13.63,0,0,0,1.18-2.92A14,14,0,0,0,466.07,211.92Z"/><path class="cls-15" d="M492.89,231l7.23-4.93a18.09,18.09,0,0,0,4.09-3.83A14,14,0,0,0,482,234,17.76,17.76,0,0,0,492.89,231Z"/><path class="cls-5" d="M380.77,73.34s-5.95-51.58,17.57-60.11c5.71-2.08,10,40.22,10,40.22Z"/><path class="cls-5" d="M645.39,143.09s29-44.5,14.93-60.37c-3.57-4-28.8,29.37-28.8,29.37Z"/><path class="cls-2" d="M566.8,235.43a67.34,67.34,0,0,1-12.08-1.1,66.51,66.51,0,1,1,12.08,1.1Zm0-123a56.53,56.53,0,1,0,10.26.94A56.59,56.59,0,0,0,566.75,112.42Z"/><path class="cls-2" d="M513.41,172.37a5,5,0,0,1-4.73-3.37c-1.88-5.45-4.57-8.8-8-10-5.07-1.71-11.48,1.46-13.52,2.82a5,5,0,0,1-5.6-8.28c.46-.32,11.43-7.64,22.24-4,6.55,2.18,11.37,7.63,14.32,16.2a5,5,0,0,1-3.1,6.36A4.83,4.83,0,0,1,513.41,172.37Z"/><path class="cls-2" d="M436.75,199.23a66.51,66.51,0,1,1,65.37-54.46A66.46,66.46,0,0,1,436.75,199.23Zm-.05-123a56.53,56.53,0,1,0,10.26.94A56.58,56.58,0,0,0,436.7,76.22Z"/><path class="cls-2" d="M449,163.41a6,6,0,0,1-5.41-3.39l-4.08-8.45A15.94,15.94,0,0,0,417,144.8l-6.8,4A6,6,0,1,1,404,138.52l6.8-4a27.95,27.95,0,0,1,39.43,11.87l4.09,8.45a6,6,0,0,1-2.8,8A5.92,5.92,0,0,1,449,163.41Z"/><path class="cls-2" d="M584.66,200.85a6,6,0,0,1-5.4-3.39L575.17,189a15.94,15.94,0,0,0-22.49-6.77l-6.81,4A6,6,0,0,1,539.74,176l6.81-4.05A27.95,27.95,0,0,1,586,183.79l4.08,8.45a6,6,0,0,1-2.79,8A5.93,5.93,0,0,1,584.66,200.85Z"/><path class="cls-16" d="M423.82,497.89s31,10,58,0"/><path class="cls-2" d="M454.72,508.35A116.48,116.48,0,0,1,422,503.6a6,6,0,0,1,3.68-11.42c.45.14,29.49,9.19,54.08.08a6,6,0,0,1,4.17,11.26A84.47,84.47,0,0,1,454.72,508.35Z"/><path class="cls-2" d="M453.68,250.55a31.19,31.19,0,0,1-7.49-.91,5,5,0,1,1,2.41-9.71,21.15,21.15,0,0,0,25.59-15.43l.82-3.31a5,5,0,1,1,9.71,2.41l-.82,3.31A31.18,31.18,0,0,1,453.68,250.55Z"/><path class="cls-2" d="M447.4,249.79a5,5,0,0,1-1.21-.15,31.17,31.17,0,0,1-22.73-37.71l.82-3.31A5,5,0,1,1,434,211l-.82,3.31a21.15,21.15,0,0,0,15.43,25.59,5,5,0,0,1-1.2,9.86Z"/><path class="cls-2" d="M505.37,263a31.34,31.34,0,0,1-7.55-.93,5,5,0,1,1,2.41-9.7A21.16,21.16,0,0,0,525.82,237l.82-3.31a5,5,0,1,1,9.71,2.41l-.82,3.3A31.17,31.17,0,0,1,505.37,263Z"/><path class="cls-2" d="M499,262.26a5,5,0,0,1-1.21-.15,31.13,31.13,0,0,1-22.73-37.7l.82-3.31a5,5,0,0,1,9.71,2.4l-.82,3.31a21.12,21.12,0,0,0,15.43,25.6,5,5,0,0,1-1.2,9.85Z"/><path class="cls-17" d="M120.41,47.77a28,28,0,0,0-37,14.08c-12.55,28-75.3,208.68-77.4,243.09a27.93,27.93,0,0,0,15,26.53c16.78,8.69,129,42.51,143,44.47a27.91,27.91,0,0,0,31.63-24.5c3-26.62,10.45-69.42,29-114.52,11.44-27.79,27.1-56.44,48.52-82.72A28,28,0,0,0,263,111.05l-61-27.38Z"/><path class="cls-2" d="M168,382.22a34.07,34.07,0,0,1-4.82-.34C149.85,380,36.26,346.1,18.32,336.8A34,34,0,0,1,.06,304.58C2.27,268.44,65.39,87.44,78,59.4a34,34,0,0,1,44.86-17.11l81.52,35.88,61.07,27.41A33.94,33.94,0,0,1,277.85,158c-19,23.32-35,50.65-47.62,81.21-18.09,43.94-25.54,85.66-28.61,112.92A33.91,33.91,0,0,1,168,382.22ZM109,51.31a22,22,0,0,0-20,13c-12.2,27.18-74.81,207-76.89,241a21.94,21.94,0,0,0,11.8,20.83c16.68,8.65,128.51,42.1,141,43.86a21.92,21.92,0,0,0,24.83-19.23c3.15-28,10.82-70.91,29.44-116.14,13-31.65,29.65-60,49.41-84.23a21.94,21.94,0,0,0-8-33.87l-61-27.39L118,53.25A21.86,21.86,0,0,0,109,51.31Z"/><path class="cls-6" d="M102.31,155.59a6,6,0,0,1-5.53-3.67L85.66,125.57a6,6,0,0,1,3.19-7.86l26.35-11.13a6,6,0,0,1,4.67,11.06l-20.82,8.79,8.79,20.82a6,6,0,0,1-5.53,8.34Z"/><path class="cls-6" d="M141.65,303.41a6,6,0,0,1-2.33-11.53L160,283.14l-8.92-20a6,6,0,0,1,11-4.88l11.4,25.62a6,6,0,0,1-3.15,8L144,302.93A5.82,5.82,0,0,1,141.65,303.41Z"/><path class="cls-6" d="M187.41,169.61a6,6,0,0,1-2.18-.41L116.3,142.4a6,6,0,1,1,4.35-11.18L189.58,158a6,6,0,0,1-2.17,11.59Z"/><path class="cls-6" d="M174.43,207a5.92,5.92,0,0,1-2.17-.41l-68.94-26.8a6,6,0,0,1,4.35-11.19l68.93,26.8a6,6,0,0,1-2.17,11.6Z"/><path class="cls-6" d="M132.25,279.26a5.88,5.88,0,0,1-2.17-.41l-50.8-19.74a6,6,0,0,1,4.35-11.19l50.79,19.75a6,6,0,0,1-2.17,11.59Z"/><path class="cls-6" d="M160.59,245.92a6,6,0,0,1-2.18-.41l-68.93-26.8a6,6,0,1,1,4.35-11.18l68.93,26.8a6,6,0,0,1-2.17,11.59Z"/><path class="cls-1" d="M239.92,240.37s-48.13-14.59-36.58-39.83c11.81-25.83,61.31,7.62,61.31,7.62"/><path class="cls-2" d="M225.74,185.16c18.76,2.51,39.44,16.12,42.27,18a6,6,0,1,1-6.72,9.94c-8.36-5.64-32.93-19.47-46-15.79A9.63,9.63,0,0,0,208.8,203a11.22,11.22,0,0,0-.2,9.88c5,11.07,25.56,19.43,33.07,21.72a6,6,0,0,1-3.49,11.49c-3.29-1-32.4-10.28-40.52-28.27a23.36,23.36,0,0,1,.22-19.81,21.69,21.69,0,0,1,14.19-12.26A34.16,34.16,0,0,1,225.74,185.16Z"/><path class="cls-18" d="M744.16,366c8.66-29.09-45.14-79.34-81.65-17.08-20.91,35.65,1.82,90.68,6,101.37,11.07,3,68.22,19.67,101.43-4.94C827.88,402.4,772.15,354.29,744.16,366Z"/><path class="cls-2" d="M721.85,464.53c-14.62,0-32.29-2.29-53.64-8.08l-1.3-.35a6,6,0,0,1-4-3.63l-.48-1.25c-22.07-56.53-14.93-88.48-5-105.32,16.58-28.26,40.28-39.12,63.4-29.08,17.43,7.57,29.8,25.36,30.34,41.51,16.12-1.19,35.12,9.2,44.51,25.71,12.47,21.92,4.2,46.65-22.12,66.15C763.49,457.58,747.33,464.52,721.85,464.53ZM673,445.3c52.87,14,79.94,5.2,93.36-4.75,21.6-16,28.29-34,18.84-50.58-8.17-14.37-27-23.32-38.67-18.42a6,6,0,0,1-8.07-7.25c3.62-12.16-7.29-29.88-22.46-36.47-17.53-7.62-34.67,1-48.27,24.14C659.23,366.38,653.35,394.24,673,445.3Z"/><path class="cls-1" d="M649.22,362.42s49.63,8.08,41.54,34.63c-8.28,27.16-61.78.57-61.78.57"/><path class="cls-2" d="M670.6,415.26c-18.94,0-41.24-10.75-44.29-12.26a6,6,0,0,1,5.34-10.75c9,4.48,35.22,14.93,47.67,9.56a9.65,9.65,0,0,0,5.7-6.51,11.21,11.21,0,0,0-1.11-9.81c-6.41-10.32-27.92-15.88-35.66-17.15a6,6,0,0,1,1.93-11.85c3.4.56,33.48,5.89,43.91,22.65a23.34,23.34,0,0,1,2.41,19.66,21.67,21.67,0,0,1-12.44,14A34.1,34.1,0,0,1,670.6,415.26Z"/></g></g></svg>